<svg width="84" height="24" viewBox="0 0 84 24" fill="none" xmlns="http://www.w3.org/2000/svg">
<path d="M9.09375 19.4062C13.7292 19.4062 16.0469 16.6771 16.0469 11.2188C16.0469 6.57292 13.7292 4.25 9.09375 4.25H4.48438V19.4062H9.09375ZM0.34375 23V0.65625H9.09375C16.4896 0.65625 20.1875 4.17708 20.1875 11.2188C20.1875 19.0729 16.4896 23 9.09375 23H0.34375ZM27.4688 0.65625V3.9375H23.3281V0.65625H27.4688ZM27.4688 6.59375V23H23.3281V6.59375H27.4688ZM31.1562 3.9375H34.2188L34.8438 6.59375H38.9688V9.875H35.2969V17.4219C35.2969 18.9531 35.9583 19.7188 37.2812 19.7188H38.9688V23H35.2812C32.5312 23 31.1562 21.526 31.1562 18.5781V3.9375ZM45.7031 11.7656C45.7031 16.9635 48.0104 19.5625 52.625 19.5625C57.125 19.5625 59.375 16.9635 59.375 11.7656C59.375 6.65104 57.125 4.09375 52.625 4.09375C48.0104 4.09375 45.7031 6.65104 45.7031 11.7656ZM41.4062 11.8594C41.4062 4.28646 45.1458 0.5 52.625 0.5C59.9896 0.5 63.6719 4.28646 63.6719 11.8594C63.6719 19.3906 59.9896 23.1562 52.625 23.1562C45.4792 23.1562 41.7396 19.3906 41.4062 11.8594ZM67.2031 23V0.65625H71.3438V7.875C73.0417 7.02083 74.8281 6.59375 76.7031 6.59375C80.8906 6.59375 82.9844 8.17188 82.9844 11.3281C82.9844 13.6198 81.526 15.4115 78.6094 16.7031L83.7031 23H78.6406L74.3594 17.1406V15.2188C77.349 14.5833 78.8438 13.5417 78.8438 12.0938C78.8438 10.6146 77.8542 9.875 75.875 9.875C74.4896 9.875 72.9792 10.3125 71.3438 11.1875V23H67.2031Z" fill="black"/>
</svg>
