<svg width="165" height="79" viewBox="0 0 165 79" fill="none" xmlns="http://www.w3.org/2000/svg">
<path d="M69.4146 37.6857C69.1193 40.0349 67.3473 40.0349 65.7229 40.0349H64.8369L65.5753 35.4931C65.5753 35.1799 65.8706 35.0233 66.1659 35.0233H66.609C67.7903 35.0233 68.824 35.0233 69.4146 35.6497C69.4146 36.2762 69.4146 36.9026 69.4146 37.6857ZM68.6763 31.4211H62.3266C61.8835 31.4211 61.5882 31.7344 61.4406 32.2042L58.9302 49.4317C58.9302 49.7449 59.0779 50.0582 59.5209 50.0582H62.4742C62.9172 50.0582 63.2126 49.7449 63.3602 49.2751L64.0986 44.5767C64.0986 44.1068 64.5416 43.7936 64.9846 43.7936H67.0519C71.1867 43.7936 73.5493 41.601 74.2877 37.3725C74.583 35.4931 74.2877 34.0836 73.5493 32.9873C72.368 32.0476 70.7437 31.4211 68.6763 31.4211Z" fill="#263577"/>
<path d="M83.2953 43.9503C83 45.8297 81.671 47.0826 79.899 47.0826C79.013 47.0826 78.2746 46.7694 77.8316 46.1429C77.3886 45.5165 77.2409 44.7334 77.3886 43.9503C77.6839 42.071 79.013 40.8181 80.785 40.8181C81.671 40.8181 82.4093 41.1313 82.8523 41.7577C83.1477 42.2276 83.443 43.0106 83.2953 43.9503ZM87.4301 37.6858H84.4767C84.1814 37.6858 84.0337 37.8424 83.886 38.1556L83.7384 39.0953L83.5907 38.7821C83 37.8424 81.5233 37.3726 80.0466 37.3726C76.6503 37.3726 73.8446 40.035 73.2539 43.7937C72.9585 45.6731 73.4015 47.3958 74.4352 48.6487C75.3212 49.745 76.6502 50.2149 78.2746 50.2149C80.9326 50.2149 82.4093 48.3355 82.4093 48.3355L82.2617 49.2752C82.2617 49.5884 82.4093 49.9017 82.8523 49.9017H85.5103C85.9534 49.9017 86.2487 49.5884 86.3964 49.1186L88.0207 38.1556C88.0207 37.999 87.8731 37.6858 87.4301 37.6858Z" fill="#263577"/>
<path d="M103.526 37.6857H100.425C100.129 37.6857 99.8341 37.8423 99.6864 38.1555L95.5517 44.7333L93.7797 38.4687C93.632 37.9989 93.3366 37.8423 92.8936 37.8423H89.9403C89.6449 37.8423 89.3496 38.1555 89.4973 38.6253L92.8936 48.9618L89.7926 53.6603C89.4973 53.9735 89.7926 54.5999 90.2356 54.5999H93.3367C93.632 54.5999 93.9273 54.4433 94.075 54.1301L104.116 38.6253C104.264 38.1555 103.969 37.6857 103.526 37.6857Z" fill="#263577"/>
<path d="M114.306 37.6857C114.01 40.0349 112.238 40.0349 110.614 40.0349H109.728L110.466 35.4931C110.466 35.1799 110.762 35.0233 111.057 35.0233H111.5C112.681 35.0233 113.715 35.0233 114.306 35.6497C114.453 36.2762 114.453 36.9026 114.306 37.6857ZM113.567 31.4211H107.218C106.775 31.4211 106.479 31.7344 106.332 32.2042L103.821 49.4317C103.821 49.7449 103.969 50.0582 104.412 50.0582H107.661C107.956 50.0582 108.251 49.9016 108.251 49.4317L108.99 44.5767C108.99 44.1068 109.433 43.7936 109.876 43.7936H111.943C116.078 43.7936 118.441 41.601 119.179 37.3725C119.474 35.4931 119.179 34.0836 118.441 32.9873C117.407 32.0476 115.782 31.4211 113.567 31.4211Z" fill="#2199D6"/>
<path d="M128.334 43.9503C128.039 45.8297 126.71 47.0826 124.938 47.0826C124.052 47.0826 123.313 46.7694 122.87 46.1429C122.427 45.5165 122.279 44.7334 122.427 43.9503C122.722 42.071 124.052 40.8181 125.824 40.8181C126.71 40.8181 127.448 41.1313 127.891 41.7577C128.186 42.2276 128.482 43.0106 128.334 43.9503ZM132.469 37.6858H129.515C129.22 37.6858 129.072 37.8424 128.925 38.1556L128.777 39.0953L128.629 38.7821C128.039 37.8424 126.562 37.3726 125.085 37.3726C121.689 37.3726 118.883 40.035 118.292 43.7937C117.997 45.6731 118.44 47.3958 119.474 48.6487C120.36 49.745 121.689 50.2149 123.313 50.2149C125.971 50.2149 127.448 48.3355 127.448 48.3355L127.3 49.2752C127.3 49.5884 127.448 49.9017 127.891 49.9017H130.549C130.992 49.9017 131.287 49.5884 131.435 49.1186L133.059 38.1556C133.059 37.999 132.764 37.6858 132.469 37.6858Z" fill="#2199D6"/>
<path d="M136.013 31.891L133.355 49.4317C133.355 49.7449 133.503 50.0582 133.946 50.0582H136.604C137.047 50.0582 137.342 49.7449 137.49 49.2751L140 32.0476C140 31.7344 139.852 31.4211 139.409 31.4211H136.456C136.308 31.4211 136.161 31.7344 136.013 31.891Z" fill="#2199D6"/>
<path d="M32.6443 53.3464L33.0873 50.0575H32.0536H26.8853L30.4293 26.0956C30.4293 26.0956 30.4293 25.939 30.577 25.939H30.7246H39.4371C42.2428 25.939 44.3101 26.5655 45.3438 27.8184C45.7868 28.4448 46.0822 29.0713 46.2298 29.6978C46.3775 30.4808 46.3775 31.2639 46.2298 32.3602V32.9866L46.6728 33.2999C47.1158 33.4565 47.4112 33.7697 47.7065 34.0829C48.1495 34.5528 48.4449 35.1792 48.4449 35.9623C48.5925 36.7454 48.5925 37.685 48.2972 38.7813C48.0018 40.0343 47.7065 40.9739 47.2635 41.9136C46.8205 42.6967 46.2298 43.3231 45.6391 43.9496C45.0485 44.4194 44.1625 44.7327 43.4241 45.0459C42.5381 45.2025 41.6521 45.3591 40.6184 45.3591H39.8801C39.4371 45.3591 38.9941 45.5157 38.5511 45.8289C38.2557 46.1422 37.9604 46.612 37.8127 47.0819V47.3951L36.9267 53.1898V53.3464V53.503C36.9267 53.503 36.9267 53.503 36.779 53.503H32.6443V53.3464Z" fill="#263577"/>
<path d="M47.264 32.3608C47.264 32.5175 47.264 32.6741 47.1163 32.8307C45.9349 39.0952 42.0956 41.1312 37.0749 41.1312H34.5645C33.9738 41.1312 33.3832 41.601 33.3832 42.2275L32.0541 50.9979L31.7588 53.5037C31.7588 53.9735 32.0541 54.2867 32.3495 54.2867H36.9272C37.5179 54.2867 37.9609 53.8169 37.9609 53.3471V53.0338L38.8469 47.3957V47.0825C38.9945 46.4561 39.4375 46.1428 39.8806 46.1428H40.6189C45.0489 46.1428 48.4453 44.2635 49.3313 38.782C49.7743 36.4328 49.479 34.5534 48.4453 33.3005C48.15 32.9873 47.707 32.6741 47.264 32.3608Z" fill="#2199D6"/>
<path d="M46.0828 31.891C45.9351 31.891 45.7874 31.7344 45.4921 31.7344C45.3444 31.7344 45.0491 31.5778 44.9014 31.5778C44.1631 31.4211 43.4247 31.4211 42.6864 31.4211H35.8937C35.746 31.4211 35.5983 31.4211 35.4506 31.5778C35.1553 31.7344 34.86 32.0476 34.86 32.3608L33.3833 42.0709V42.3841C33.531 41.7576 33.974 41.2878 34.5646 41.2878H37.075C42.0957 41.2878 45.9351 39.0952 47.1164 32.9873C47.1164 32.8307 47.1165 32.6741 47.2641 32.5174C46.9688 32.3608 46.6734 32.2042 46.3781 32.0476C46.2304 31.891 46.0828 31.891 46.0828 31.891Z" fill="#252C5E"/>
<path d="M34.8601 32.3608C34.8601 32.0476 35.1554 31.7344 35.4508 31.5778C35.5984 31.5778 35.7461 31.4212 35.8938 31.4212H42.6865C43.4249 31.4212 44.3109 31.4212 44.9015 31.5778C45.0492 31.5778 45.3446 31.5778 45.4922 31.7344C45.6399 31.7344 45.7876 31.891 46.0829 31.891C46.2306 31.891 46.2306 31.891 46.3782 32.0476C46.6736 32.2042 46.9689 32.3608 47.2642 32.5175C47.5596 30.1682 47.2642 28.6021 46.0829 27.1926C44.7539 25.6265 42.3912 25 39.4378 25H30.7254C30.1347 25 29.544 25.4698 29.544 26.0963L26 50.2148C26 50.6846 26.2953 51.1545 26.7383 51.1545H32.0544L33.3834 42.0709L34.8601 32.3608Z" fill="#263577"/>
<rect x="0.5" y="0.5" width="164" height="78" rx="19.5" stroke="black"/>
</svg>
