<svg width="165" height="79" viewBox="0 0 165 79" fill="none" xmlns="http://www.w3.org/2000/svg">
<rect x="0.5" y="0.5" width="164" height="78" rx="19.5" fill="white"/>
<path d="M111.333 39.025C111.333 48.9157 103.526 57.05 93.8335 57.05C84.2309 57.05 76.3335 48.9157 76.3335 39.025C76.3335 29.1344 84.1412 21 93.7438 21C103.526 21 111.333 29.1344 111.333 39.025Z" fill="#F9B50B"/>
<path d="M87.9103 39.1175C87.9103 37.8234 87.7308 36.5293 87.5513 35.3276H76.782C76.8718 34.6805 77.0513 34.1259 77.2308 33.3864H86.8333C86.6538 32.7394 86.3846 32.0923 86.1154 31.4453H77.9487C78.2179 30.7982 78.5769 30.2436 78.9359 29.5041H85.1282C84.7692 28.8571 84.3205 28.21 83.782 27.563H80.3718C80.9103 26.9159 81.4487 26.3613 82.1667 25.7142C79.1154 22.7563 74.9872 21 70.4103 21C60.8974 21.2773 53 29.1344 53 39.025C53 48.9157 60.8077 57.05 70.5 57.05C75.0769 57.05 79.1154 55.2013 82.2564 52.3358C82.8846 51.7812 83.4231 51.1341 84.0513 50.3947H80.4615C80.0128 49.84 79.5641 49.193 79.2051 48.5459H85.3077C85.6667 47.9913 86.0256 47.3443 86.2949 46.6048H78.1282C77.859 46.0502 77.5897 45.4031 77.4103 44.6636H87.0128C87.5513 42.9998 87.9103 41.1511 87.9103 39.1175Z" fill="#C8191C"/>
<path d="M76.6923 43.6469L76.9615 41.9831C76.8718 41.9831 76.6923 42.0755 76.5128 42.0755C75.8846 42.0755 75.7949 41.7058 75.8846 41.5209L76.4231 38.1932H77.4103L77.6795 36.3445H76.7821L76.9615 35.2352H75.0769C75.0769 35.2352 74 41.5209 74 42.2604C74 43.3696 74.6282 43.9242 75.5256 43.9242C76.0641 43.9242 76.5128 43.7393 76.6923 43.6469Z" fill="white"/>
<path d="M77.3203 40.5964C77.3203 43.277 79.1152 43.9241 80.5511 43.9241C81.8972 43.9241 82.5254 43.6468 82.5254 43.6468L82.8844 41.7981C82.8844 41.7981 81.8972 42.2602 80.9101 42.2602C78.846 42.2602 79.2049 40.6888 79.2049 40.6888H82.9742C82.9742 40.6888 83.2434 39.4872 83.2434 38.9325C83.2434 37.7309 82.6152 36.1595 80.5511 36.1595C78.7562 36.067 77.3203 38.1931 77.3203 40.5964ZM80.5511 37.8233C81.5383 37.8233 81.3588 39.025 81.3588 39.1174H79.2947C79.3844 39.025 79.5639 37.8233 80.5511 37.8233Z" fill="white"/>
<path d="M92.3078 43.6468L92.6667 41.5208C92.6667 41.5208 91.7693 41.983 91.0514 41.983C89.7949 41.983 89.1667 40.9662 89.1667 39.7645C89.1667 37.4536 90.2437 36.2519 91.5898 36.2519C92.4873 36.2519 93.295 36.8066 93.295 36.8066L93.5642 34.773C93.5642 34.773 92.4873 34.3108 91.4103 34.3108C89.2565 34.3108 87.1924 36.2519 87.1924 39.857C87.1924 42.2603 88.2693 43.8317 90.5129 43.8317C91.3206 43.9241 92.3078 43.6468 92.3078 43.6468Z" fill="white"/>
<path d="M66.5513 36.0671C65.2949 36.0671 64.3077 36.4369 64.3077 36.4369L64.0384 38.1007C64.0384 38.1007 64.8461 37.731 66.1026 37.731C66.7308 37.731 67.2692 37.8234 67.2692 38.378C67.2692 38.7478 67.1795 38.8402 67.1795 38.8402H66.3718C64.7564 38.8402 63.0513 39.4873 63.0513 41.7057C63.0513 43.462 64.1282 43.8318 64.8461 43.8318C66.1026 43.8318 66.7308 42.9998 66.8205 42.9998L66.7308 43.7393H68.2564L68.9743 38.4705C68.9743 36.1596 67.1795 36.0671 66.5513 36.0671ZM66.9102 40.3192C66.9102 40.5965 66.7308 42.1679 65.6538 42.1679C65.1154 42.1679 64.9359 41.7057 64.9359 41.4284C64.9359 40.9662 65.2051 40.3192 66.641 40.3192C66.8205 40.3192 66.9102 40.3192 66.9102 40.3192Z" fill="white"/>
<path d="M70.7695 43.8316C71.2182 43.8316 73.5515 43.924 73.5515 41.3358C73.5515 38.9325 71.3079 39.3947 71.3079 38.4703C71.3079 38.0081 71.6669 37.8233 72.2951 37.8233C72.5643 37.8233 73.5515 37.9157 73.5515 37.9157L73.8208 36.1594C73.8208 36.1594 73.1925 35.9745 72.0259 35.9745C70.6797 35.9745 69.2438 36.5292 69.2438 38.4703C69.2438 40.6888 71.5772 40.5039 71.5772 41.3358C71.5772 41.8905 70.949 41.9829 70.5002 41.9829C69.6925 41.9829 68.7951 41.7056 68.7951 41.7056L68.5259 43.4619C68.7054 43.6467 69.2438 43.8316 70.7695 43.8316Z" fill="white"/>
<path d="M107.744 34.5881L107.385 37.1763C107.385 37.1763 106.667 36.2519 105.59 36.2519C103.885 36.2519 102.449 38.378 102.449 40.8737C102.449 42.4451 103.167 44.0165 104.782 44.0165C105.859 44.0165 106.577 43.2771 106.577 43.2771L106.487 43.9241H108.372L109.718 34.7729L107.744 34.5881ZM106.846 39.5796C106.846 40.5964 106.397 41.983 105.321 41.983C104.692 41.983 104.333 41.4283 104.333 40.4115C104.333 38.8401 104.962 37.9158 105.859 37.9158C106.487 38.0082 106.846 38.4704 106.846 39.5796Z" fill="white"/>
<path d="M56.4101 43.7392L57.487 36.899L57.6665 43.7392H58.9229L61.346 36.899L60.3588 43.7392H62.3332L63.8588 34.5881H60.8075L58.9229 40.2267L58.8332 34.5881H56.1409L54.6152 43.7392H56.4101Z" fill="white"/>
<path d="M85.1281 43.7392C85.6665 40.5964 85.7563 38.0082 87.1024 38.4704C87.2819 37.2687 87.5511 36.7141 87.7306 36.2519H87.3717C86.564 36.2519 85.846 37.3611 85.846 37.3611L86.0255 36.3443H84.2306L83.064 43.7392H85.1281Z" fill="white"/>
<path d="M96.6152 36.0671C95.3588 36.0671 94.3716 36.4369 94.3716 36.4369L94.1024 38.1007C94.1024 38.1007 94.9101 37.731 96.1665 37.731C96.7947 37.731 97.3332 37.8234 97.3332 38.378C97.3332 38.7478 97.2434 38.8402 97.2434 38.8402H96.4357C94.8204 38.8402 93.1152 39.4873 93.1152 41.7057C93.1152 43.462 94.1922 43.8318 94.9101 43.8318C96.1665 43.8318 96.7947 42.9998 96.8845 42.9998L96.7947 43.7393H98.4998L99.2178 38.4705C99.2178 36.1596 97.2434 36.0671 96.6152 36.0671ZM97.064 40.3192C97.064 40.5965 96.8845 42.1679 95.8075 42.1679C95.2691 42.1679 95.0896 41.7057 95.0896 41.4284C95.0896 40.9662 95.3588 40.3192 96.7947 40.3192C96.9742 40.3192 96.9742 40.3192 97.064 40.3192Z" fill="white"/>
<path d="M100.654 43.7392C101.192 40.5964 101.282 38.0082 102.628 38.4704C102.808 37.2687 103.077 36.7141 103.257 36.2519H102.898C102.09 36.2519 101.372 37.3611 101.372 37.3611L101.551 36.3443H99.7565L98.5898 43.7392H100.654Z" fill="white"/>
<rect x="0.5" y="0.5" width="164" height="78" rx="19.5" stroke="black"/>
</svg>
