<svg width="165" height="79" viewBox="0 0 165 79" fill="none" xmlns="http://www.w3.org/2000/svg">
<path d="M112.36 28.3307H108.022C106.711 28.3307 105.702 28.7716 105.097 30.2047L96.8247 50.8193H102.676C102.676 50.8193 103.684 48.0633 103.886 47.4019C104.491 47.4019 110.241 47.4019 111.048 47.4019C111.25 48.1736 111.755 50.709 111.755 50.709H117L112.36 28.3307ZM105.5 42.7719C106.005 41.449 107.719 36.4883 107.719 36.4883C107.719 36.5986 108.224 35.1655 108.426 34.3938L108.829 36.3781C108.829 36.3781 109.939 41.7798 110.14 42.8821H105.5V42.7719Z" fill="#3362AB"/>
<path d="M97.2279 43.4333C97.2279 48.0634 93.3946 51.15 87.4429 51.15C84.9209 51.15 82.4999 50.5988 81.1885 49.9374L81.9955 44.8664L82.7016 45.1972C84.5174 46.0791 85.7279 46.4098 87.9472 46.4098C89.5613 46.4098 91.2762 45.7484 91.2762 44.205C91.2762 43.2129 90.5701 42.5514 88.3508 41.4491C86.2323 40.3467 83.4078 38.5829 83.4078 35.386C83.4078 30.9764 87.342 28 92.8902 28C95.0087 28 96.8244 28.441 97.9341 28.9921L97.1271 33.8426L96.7236 33.4017C95.7148 32.9607 94.4034 32.5198 92.4867 32.5198C90.3683 32.63 89.3595 33.6221 89.3595 34.5041C89.3595 35.4962 90.5701 36.2679 92.4867 37.26C95.7148 38.9136 97.2279 40.7876 97.2279 43.4333Z" fill="#3362AB"/>
<path d="M48 28.5511L48.1009 28.1102H56.7763C57.9868 28.1102 58.8947 28.5511 59.1974 29.9842L61.114 39.9057C59.1974 34.6142 54.7588 30.3149 48 28.5511Z" fill="#F9B50B"/>
<path d="M73.3198 28.3306L64.5435 50.709H58.5917L53.5479 31.9685C57.1794 34.504 60.2057 38.4726 61.3154 41.2285L61.9207 43.5435L67.368 28.2204H73.3198V28.3306Z" fill="#3362AB"/>
<path d="M75.6401 28.2204H81.1883L77.6576 50.709H72.1094L75.6401 28.2204Z" fill="#3362AB"/>
<rect x="0.5" y="0.5" width="164" height="78" rx="19.5" stroke="black"/>
</svg>
